<svg width="139" height="50" viewBox="0 0 139 50" fill="none" xmlns="http://www.w3.org/2000/svg">
<path d="M60.9607 22.154C60.594 22.154 60.308 22.0513 60.1027 21.846C59.912 21.6407 59.8167 21.3547 59.8167 20.988V7.502C59.8167 7.12067 59.912 6.83467 60.1027 6.644C60.308 6.43867 60.594 6.336 60.9607 6.336C61.3274 6.336 61.606 6.43867 61.7967 6.644C62.002 6.83467 62.1047 7.12067 62.1047 7.502V13.178H70.7947V7.502C70.7947 7.12067 70.89 6.83467 71.0807 6.644C71.286 6.43867 71.572 6.336 71.9387 6.336C72.3054 6.336 72.584 6.43867 72.7747 6.644C72.9654 6.83467 73.0607 7.12067 73.0607 7.502V20.988C73.0607 21.3547 72.9654 21.6407 72.7747 21.846C72.584 22.0513 72.3054 22.154 71.9387 22.154C71.572 22.154 71.286 22.0513 71.0807 21.846C70.89 21.6407 70.7947 21.3547 70.7947 20.988V15.092H62.1047V20.988C62.1047 21.3547 62.0094 21.6407 61.8187 21.846C61.628 22.0513 61.342 22.154 60.9607 22.154ZM81.1039 22.198C80.0186 22.198 79.0799 21.9707 78.2879 21.516C77.5106 21.0613 76.9019 20.416 76.4619 19.58C76.0219 18.744 75.8019 17.7613 75.8019 16.632C75.8019 15.7667 75.9266 14.9967 76.1759 14.322C76.4253 13.6473 76.7773 13.068 77.2319 12.584C77.7013 12.0853 78.2586 11.7113 78.9039 11.462C79.5639 11.198 80.2973 11.066 81.1039 11.066C82.1746 11.066 83.0986 11.2933 83.8759 11.748C84.6679 12.2027 85.2839 12.848 85.7239 13.684C86.1639 14.5053 86.3839 15.488 86.3839 16.632C86.3839 17.4827 86.2593 18.2527 86.0099 18.942C85.7606 19.6313 85.4013 20.218 84.9319 20.702C84.4773 21.186 83.9199 21.56 83.2599 21.824C82.6146 22.0733 81.8959 22.198 81.1039 22.198ZM81.1039 20.482C81.7053 20.482 82.2333 20.3353 82.6879 20.042C83.1426 19.7487 83.4946 19.316 83.7439 18.744C84.0079 18.172 84.1399 17.468 84.1399 16.632C84.1399 15.3707 83.8613 14.4173 83.3039 13.772C82.7466 13.1267 82.0133 12.804 81.1039 12.804C80.4879 12.804 79.9526 12.9507 79.4979 13.244C79.0433 13.5227 78.6839 13.948 78.4199 14.52C78.1706 15.092 78.0459 15.796 78.0459 16.632C78.0459 17.8787 78.3246 18.832 78.8819 19.492C79.4393 20.152 80.1799 20.482 81.1039 20.482ZM89.9794 26.114C89.6274 26.114 89.356 26.0187 89.1654 25.828C88.9747 25.6373 88.8794 25.3587 88.8794 24.992V12.232C88.8794 11.8653 88.9747 11.5867 89.1654 11.396C89.356 11.2053 89.62 11.11 89.9574 11.11C90.3094 11.11 90.5807 11.2053 90.7714 11.396C90.962 11.5867 91.0574 11.8653 91.0574 12.232V14.146L90.8154 13.684C91.05 12.892 91.512 12.2613 92.2014 11.792C92.8907 11.308 93.7047 11.066 94.6434 11.066C95.5967 11.066 96.4254 11.2933 97.1294 11.748C97.8481 12.2027 98.3981 12.8407 98.7794 13.662C99.1754 14.4833 99.3734 15.4733 99.3734 16.632C99.3734 17.7613 99.1754 18.7513 98.7794 19.602C98.3981 20.438 97.8554 21.0833 97.1514 21.538C96.4474 21.978 95.6114 22.198 94.6434 22.198C93.7194 22.198 92.9127 21.9633 92.2234 21.494C91.534 21.0247 91.072 20.4013 90.8374 19.624H91.1014V24.992C91.1014 25.3587 90.9987 25.6373 90.7934 25.828C90.6027 26.0187 90.3314 26.114 89.9794 26.114ZM94.0934 20.482C94.7094 20.482 95.2447 20.3353 95.6994 20.042C96.1541 19.7487 96.5061 19.316 96.7554 18.744C97.0047 18.172 97.1294 17.468 97.1294 16.632C97.1294 15.3707 96.8507 14.4173 96.2934 13.772C95.7507 13.1267 95.0174 12.804 94.0934 12.804C93.492 12.804 92.9567 12.9507 92.4874 13.244C92.0327 13.5227 91.6807 13.948 91.4314 14.52C91.182 15.092 91.0574 15.796 91.0574 16.632C91.0574 17.8787 91.336 18.832 91.8934 19.492C92.4507 20.152 93.184 20.482 94.0934 20.482ZM106.915 22.198C105.742 22.198 104.73 21.978 103.879 21.538C103.043 21.0833 102.391 20.4453 101.921 19.624C101.467 18.788 101.239 17.798 101.239 16.654C101.239 15.5393 101.467 14.564 101.921 13.728C102.376 12.892 102.999 12.2393 103.791 11.77C104.583 11.3007 105.485 11.066 106.497 11.066C107.245 11.066 107.913 11.1907 108.499 11.44C109.086 11.6747 109.585 12.0267 109.995 12.496C110.421 12.9507 110.736 13.508 110.941 14.168C111.161 14.828 111.271 15.5687 111.271 16.39C111.271 16.6393 111.198 16.83 111.051 16.962C110.905 17.0793 110.685 17.138 110.391 17.138H102.999V15.774H109.775L109.401 16.082C109.401 15.3487 109.291 14.7253 109.071 14.212C108.866 13.6987 108.551 13.31 108.125 13.046C107.715 12.7673 107.201 12.628 106.585 12.628C105.896 12.628 105.309 12.7893 104.825 13.112C104.356 13.4347 103.997 13.882 103.747 14.454C103.498 15.026 103.373 15.6933 103.373 16.456V16.588C103.373 17.8787 103.674 18.854 104.275 19.514C104.891 20.1593 105.779 20.482 106.937 20.482C107.377 20.482 107.839 20.4233 108.323 20.306C108.822 20.1887 109.291 19.9907 109.731 19.712C109.981 19.5653 110.201 19.4993 110.391 19.514C110.597 19.5287 110.758 19.5947 110.875 19.712C111.007 19.8293 111.088 19.976 111.117 20.152C111.147 20.328 111.117 20.5113 111.029 20.702C110.941 20.878 110.787 21.0393 110.567 21.186C110.069 21.5233 109.489 21.78 108.829 21.956C108.169 22.1173 107.531 22.198 106.915 22.198ZM115.432 22.154C115.08 22.154 114.802 22.0587 114.596 21.868C114.406 21.6627 114.31 21.384 114.31 21.032V12.98H113.078C112.8 12.98 112.58 12.9067 112.418 12.76C112.257 12.5987 112.176 12.386 112.176 12.122C112.176 11.8433 112.257 11.6307 112.418 11.484C112.58 11.3373 112.8 11.264 113.078 11.264H114.948L114.31 11.858V11.066C114.31 9.614 114.67 8.52133 115.388 7.788C116.107 7.04 117.156 6.6 118.534 6.468L119.216 6.424C119.466 6.39467 119.664 6.43133 119.81 6.534C119.957 6.63667 120.052 6.76867 120.096 6.93C120.14 7.09133 120.14 7.26 120.096 7.436C120.067 7.59733 119.994 7.744 119.876 7.876C119.759 8.008 119.612 8.08133 119.436 8.096L119.018 8.118C118.153 8.19133 117.522 8.44067 117.126 8.866C116.73 9.27667 116.532 9.90733 116.532 10.758V11.616L116.224 11.264H118.666C118.974 11.264 119.202 11.3373 119.348 11.484C119.51 11.6307 119.59 11.8433 119.59 12.122C119.59 12.386 119.51 12.5987 119.348 12.76C119.202 12.9067 118.974 12.98 118.666 12.98H116.532V21.032C116.532 21.78 116.166 22.154 115.432 22.154ZM125.127 22.198C124.262 22.198 123.536 22.0367 122.949 21.714C122.377 21.3913 121.945 20.9147 121.651 20.284C121.373 19.6387 121.233 18.832 121.233 17.864V12.232C121.233 11.8507 121.329 11.572 121.519 11.396C121.71 11.2053 121.981 11.11 122.333 11.11C122.685 11.11 122.957 11.2053 123.147 11.396C123.353 11.572 123.455 11.8507 123.455 12.232V17.886C123.455 18.7513 123.631 19.3893 123.983 19.8C124.335 20.2107 124.893 20.416 125.655 20.416C126.491 20.416 127.166 20.1373 127.679 19.58C128.207 19.008 128.471 18.26 128.471 17.336V12.232C128.471 11.8507 128.567 11.572 128.757 11.396C128.948 11.2053 129.227 11.11 129.593 11.11C129.945 11.11 130.217 11.2053 130.407 11.396C130.598 11.572 130.693 11.8507 130.693 12.232V21.032C130.693 21.78 130.334 22.154 129.615 22.154C129.278 22.154 129.014 22.0587 128.823 21.868C128.633 21.6627 128.537 21.384 128.537 21.032V19.162L128.823 19.646C128.53 20.4673 128.061 21.098 127.415 21.538C126.77 21.978 126.007 22.198 125.127 22.198ZM137.279 22.198C136.135 22.198 135.269 21.868 134.683 21.208C134.111 20.5333 133.825 19.5653 133.825 18.304V7.458C133.825 7.09133 133.92 6.81267 134.111 6.622C134.301 6.43133 134.573 6.336 134.925 6.336C135.277 6.336 135.548 6.43133 135.739 6.622C135.944 6.81267 136.047 7.09133 136.047 7.458V18.172C136.047 18.9053 136.193 19.4553 136.487 19.822C136.795 20.174 137.235 20.35 137.807 20.35C137.939 20.35 138.056 20.35 138.159 20.35C138.261 20.3353 138.364 20.3207 138.467 20.306C138.643 20.2913 138.767 20.3427 138.841 20.46C138.914 20.5627 138.951 20.7827 138.951 21.12C138.951 21.428 138.885 21.67 138.753 21.846C138.621 22.0073 138.408 22.11 138.115 22.154C137.983 22.1687 137.843 22.176 137.697 22.176C137.55 22.1907 137.411 22.198 137.279 22.198Z" fill="#6EB9FC"/>
<path d="M92.9065 39.878C93.0278 39.878 93.1212 39.934 93.1865 40.046C93.2612 40.158 93.2985 40.312 93.2985 40.508C93.2985 40.872 93.2098 41.1613 93.0325 41.376C92.1085 42.5053 91.1238 43.07 90.0785 43.07C89.1732 43.07 88.4498 42.72 87.9085 42.02C87.3672 41.32 87.0965 40.3167 87.0965 39.01C87.0965 38.6927 87.1105 38.3753 87.1385 38.058C86.5225 38.17 85.8505 38.254 85.1225 38.31C84.6372 38.3473 84.3058 38.3707 84.1285 38.38C83.9418 39.332 83.6805 40.4987 83.3445 41.88C83.1485 42.692 82.7752 43.098 82.2245 43.098C81.6272 43.098 81.3285 42.8273 81.3285 42.286C81.3285 42.1647 81.3518 41.9967 81.3985 41.782C81.7158 40.5033 81.9678 39.4207 82.1545 38.534L81.4825 38.562C81.1745 38.562 80.9505 38.5107 80.8105 38.408C80.6705 38.296 80.6005 38.1187 80.6005 37.876C80.6005 37.568 80.6892 37.344 80.8665 37.204C81.0438 37.0547 81.3378 36.9707 81.7485 36.952L82.4905 36.924C82.7332 35.608 82.8545 34.6047 82.8545 33.914C82.8545 33.4753 82.7892 33.1767 82.6585 33.018C82.5278 32.8593 82.3552 32.78 82.1405 32.78C81.4872 32.78 80.7498 33.326 79.9285 34.418C79.8072 34.5767 79.6718 34.656 79.5225 34.656C79.3918 34.656 79.2798 34.5953 79.1865 34.474C79.0932 34.3527 79.0465 34.1987 79.0465 34.012C79.0465 33.7227 79.1632 33.4147 79.3965 33.088C79.8072 32.5187 80.3252 32.052 80.9505 31.688C81.5758 31.3147 82.2105 31.128 82.8545 31.128C83.4612 31.128 83.9278 31.338 84.2545 31.758C84.5905 32.1687 84.7585 32.8127 84.7585 33.69C84.7585 34.4647 84.6465 35.5147 84.4225 36.84L85.7945 36.77C86.3825 36.742 86.8865 36.6953 87.3065 36.63C87.4745 35.6033 87.7312 34.642 88.0765 33.746C88.4218 32.85 88.8512 32.122 89.3645 31.562C89.8778 31.002 90.4518 30.722 91.0865 30.722C91.5532 30.722 91.9218 30.9087 92.1925 31.282C92.4632 31.646 92.5985 32.1267 92.5985 32.724C92.5985 35.0387 91.4178 36.644 89.0565 37.54C89.0285 37.9133 89.0145 38.3007 89.0145 38.702C89.0145 39.682 89.1358 40.3773 89.3785 40.788C89.6212 41.1987 89.9618 41.404 90.4005 41.404C90.7832 41.404 91.1332 41.306 91.4505 41.11C91.7678 40.9047 92.1272 40.5593 92.5285 40.074C92.6405 39.9433 92.7665 39.878 92.9065 39.878ZM91.0165 31.94C90.8112 31.94 90.5918 32.1267 90.3585 32.5C90.1345 32.8733 89.9198 33.382 89.7145 34.026C89.5092 34.67 89.3458 35.3747 89.2245 36.14C89.9712 35.832 90.5218 35.3933 90.8765 34.824C91.2312 34.2547 91.4085 33.522 91.4085 32.626C91.4085 32.4113 91.3712 32.2433 91.2965 32.122C91.2218 32.0007 91.1285 31.94 91.0165 31.94ZM93.8872 43.07C93.3085 43.07 92.8465 42.86 92.5012 42.44C92.1558 42.02 91.9832 41.4693 91.9832 40.788C91.9832 40.0413 92.1558 39.3367 92.5012 38.674C92.8465 38.002 93.3038 37.4653 93.8732 37.064C94.4518 36.6533 95.0632 36.448 95.7072 36.448C95.9125 36.448 96.0478 36.49 96.1132 36.574C96.1878 36.6487 96.2485 36.7887 96.2952 36.994C96.4912 36.9567 96.6965 36.938 96.9112 36.938C97.3685 36.938 97.5972 37.1013 97.5972 37.428C97.5972 37.624 97.5272 38.0907 97.3872 38.828C97.1725 39.9013 97.0652 40.648 97.0652 41.068C97.0652 41.208 97.0978 41.32 97.1632 41.404C97.2378 41.488 97.3312 41.53 97.4432 41.53C97.6205 41.53 97.8352 41.418 98.0872 41.194C98.3392 40.9607 98.6798 40.5873 99.1092 40.074C99.2212 39.9433 99.3472 39.878 99.4872 39.878C99.6085 39.878 99.7018 39.934 99.7672 40.046C99.8418 40.158 99.8792 40.312 99.8792 40.508C99.8792 40.8813 99.7905 41.1707 99.6132 41.376C99.2305 41.852 98.8245 42.2533 98.3952 42.58C97.9658 42.9067 97.5505 43.07 97.1492 43.07C96.8412 43.07 96.5565 42.9673 96.2952 42.762C96.0432 42.5473 95.8518 42.258 95.7212 41.894C95.2358 42.678 94.6245 43.07 93.8872 43.07ZM94.3912 41.656C94.5965 41.656 94.7925 41.5347 94.9792 41.292C95.1658 41.0493 95.3012 40.7273 95.3852 40.326L95.9032 37.75C95.5112 37.7593 95.1472 37.9087 94.8112 38.198C94.4845 38.478 94.2232 38.8513 94.0272 39.318C93.8312 39.7847 93.7332 40.2793 93.7332 40.802C93.7332 41.0913 93.7892 41.306 93.9012 41.446C94.0225 41.586 94.1858 41.656 94.3912 41.656ZM99.7353 43.07C99.3807 43.07 99.1287 42.8833 98.9793 42.51C98.8393 42.1367 98.7693 41.5393 98.7693 40.718C98.7693 39.5047 98.942 38.352 99.2873 37.26C99.3713 36.9893 99.5067 36.7933 99.6933 36.672C99.8893 36.5413 100.16 36.476 100.505 36.476C100.692 36.476 100.823 36.4993 100.897 36.546C100.972 36.5927 101.009 36.6813 101.009 36.812C101.009 36.9613 100.939 37.2973 100.799 37.82C100.706 38.1933 100.631 38.52 100.575 38.8C100.519 39.08 100.473 39.4253 100.435 39.836C100.743 39.0333 101.089 38.38 101.471 37.876C101.854 37.372 102.227 37.0127 102.591 36.798C102.965 36.5833 103.305 36.476 103.613 36.476C104.22 36.476 104.523 36.7793 104.523 37.386C104.523 37.75 104.421 38.408 104.215 39.36C104.038 40.172 103.949 40.7087 103.949 40.97C103.949 41.3433 104.085 41.53 104.355 41.53C104.542 41.53 104.761 41.418 105.013 41.194C105.275 40.9607 105.62 40.5873 106.049 40.074C106.161 39.9433 106.287 39.878 106.427 39.878C106.549 39.878 106.642 39.934 106.707 40.046C106.782 40.158 106.819 40.312 106.819 40.508C106.819 40.8813 106.731 41.1707 106.553 41.376C106.152 41.8707 105.718 42.2767 105.251 42.594C104.794 42.9113 104.271 43.07 103.683 43.07C103.207 43.07 102.848 42.9347 102.605 42.664C102.363 42.384 102.241 41.9827 102.241 41.46C102.241 41.1987 102.307 40.732 102.437 40.06C102.559 39.472 102.619 39.066 102.619 38.842C102.619 38.6927 102.568 38.618 102.465 38.618C102.344 38.618 102.171 38.7767 101.947 39.094C101.733 39.402 101.509 39.8127 101.275 40.326C101.051 40.8393 100.869 41.3807 100.729 41.95C100.627 42.3887 100.505 42.6873 100.365 42.846C100.235 42.9953 100.025 43.07 99.7353 43.07ZM113.639 39.878C113.76 39.878 113.853 39.934 113.919 40.046C113.993 40.158 114.031 40.312 114.031 40.508C114.031 40.8813 113.942 41.1707 113.765 41.376C113.382 41.8427 112.962 42.244 112.505 42.58C112.047 42.9067 111.595 43.07 111.147 43.07C110.437 43.07 109.896 42.6547 109.523 41.824C109.131 42.3187 108.785 42.65 108.487 42.818C108.197 42.986 107.857 43.07 107.465 43.07C106.895 43.07 106.424 42.86 106.051 42.44C105.687 42.0107 105.505 41.4553 105.505 40.774C105.505 40.0273 105.663 39.3367 105.981 38.702C106.298 38.058 106.732 37.5353 107.283 37.134C107.843 36.7233 108.468 36.4807 109.159 36.406C109.336 34.5953 109.672 33.0507 110.167 31.772C110.671 30.484 111.329 29.84 112.141 29.84C112.542 29.84 112.873 30.022 113.135 30.386C113.405 30.75 113.541 31.3007 113.541 32.038C113.541 33.0833 113.284 34.306 112.771 35.706C112.257 37.106 111.571 38.5433 110.713 40.018C110.75 40.5593 110.829 40.9467 110.951 41.18C111.081 41.4133 111.245 41.53 111.441 41.53C111.693 41.53 111.949 41.418 112.211 41.194C112.472 40.97 112.822 40.5967 113.261 40.074C113.373 39.9433 113.499 39.878 113.639 39.878ZM111.987 31.212C111.809 31.212 111.632 31.5293 111.455 32.164C111.277 32.7893 111.123 33.6107 110.993 34.628C110.871 35.6453 110.783 36.7093 110.727 37.82C111.772 35.5427 112.295 33.7133 112.295 32.332C112.295 31.9773 112.262 31.702 112.197 31.506C112.141 31.31 112.071 31.212 111.987 31.212ZM107.955 41.656C108.132 41.656 108.309 41.586 108.487 41.446C108.664 41.2967 108.888 41.026 109.159 40.634C109.065 40.13 109.019 39.5653 109.019 38.94C109.019 38.716 109.028 38.352 109.047 37.848C108.533 38.0067 108.104 38.352 107.759 38.884C107.423 39.4067 107.255 39.99 107.255 40.634C107.255 41.3153 107.488 41.656 107.955 41.656ZM115.496 43.378C115.01 43.378 114.637 43.266 114.376 43.042C114.124 42.818 113.998 42.566 113.998 42.286C113.998 42.0433 114.086 41.8333 114.264 41.656C114.441 41.4787 114.702 41.39 115.048 41.39C115.169 41.39 115.309 41.404 115.468 41.432C115.636 41.4507 115.762 41.4647 115.846 41.474C115.836 41.2313 115.78 41.0027 115.678 40.788C115.584 40.5733 115.463 40.368 115.314 40.172C115.164 39.9667 115.024 39.7893 114.894 39.64C114.604 40.1907 114.315 40.648 114.026 41.012C113.746 41.376 113.438 41.7213 113.102 42.048C112.934 42.216 112.756 42.3 112.57 42.3C112.42 42.3 112.299 42.2487 112.206 42.146C112.112 42.034 112.066 41.8987 112.066 41.74C112.066 41.5533 112.131 41.3807 112.262 41.222L112.444 40.998C112.957 40.3633 113.344 39.8407 113.606 39.43C113.774 39.1593 113.942 38.8373 114.11 38.464C114.287 38.0907 114.516 37.582 114.796 36.938C114.973 36.5273 115.342 36.322 115.902 36.322C116.163 36.322 116.345 36.3453 116.448 36.392C116.55 36.4387 116.602 36.5133 116.602 36.616C116.602 36.672 116.583 36.7607 116.546 36.882C116.508 37.0033 116.457 37.1247 116.392 37.246C116.224 37.582 116.14 37.8667 116.14 38.1C116.14 38.24 116.186 38.394 116.28 38.562C116.382 38.73 116.536 38.94 116.742 39.192C117.04 39.584 117.264 39.92 117.414 40.2C117.572 40.4707 117.652 40.7693 117.652 41.096C117.652 41.488 117.558 41.8613 117.372 42.216C117.194 42.5613 116.942 42.8413 116.616 43.056C116.289 43.2707 115.916 43.378 115.496 43.378Z" fill="white"/>
<path d="M6.92741 28.6599C6.8769 27.3807 7.84604 26.6995 8.28641 28.5754C8.7252 30.4512 9.32657 34.6399 9.32657 34.6399C9.32657 34.6399 7.00001 34.2268 7.02527 34.0593C7.05052 33.8918 6.92741 28.6599 6.92741 28.6599Z" fill="#D5549F"/>
<path d="M4.68449 25.5115C4.62294 23.9323 5.81936 23.0901 6.36233 25.4078C6.9053 27.7254 7.64715 32.8983 7.64715 32.8983C7.64715 32.8983 4.77446 32.3879 4.80603 32.1805C4.8376 31.9732 4.68607 25.5115 4.68607 25.5115H4.68449Z" fill="#E274B8"/>
<path d="M2.43371 23.3049C2.36426 21.5487 3.69643 20.614 4.29937 23.1885C4.90232 25.7646 5.72783 31.5149 5.72783 31.5149C5.72783 31.5149 1.90652 27.5303 1.94124 27.3006C1.97597 27.071 2.43528 23.3033 2.43528 23.3033L2.43371 23.3049Z" fill="#EA87C0"/>
<path d="M17.6258 47.2023C17.0923 38.7292 8.41899 38.2267 4.68292 35.2215C0.945266 32.2164 0.124498 24.5456 0.356523 22.8245C0.588547 21.1034 1.49139 20.2532 2.24271 22.657C2.99403 25.0608 3.69484 29.3899 6.52964 31.3901C9.36445 33.3904 15.5944 34.3347 11.6515 31.446C7.70713 28.5573 8.60366 25.4149 9.26501 24.753C9.92636 24.091 11.721 27.8714 14.0586 29.1474C16.3962 30.4219 19.6288 31.7714 21.2466 35.7415C23.4974 41.267 17.6258 47.2023 17.6258 47.2023Z" fill="url(#paint0_linear_153_146)"/>
<path d="M35.4444 4.75745C32.8637 2.97892 28.5799 1.96125 24.3751 4.69365C22.6704 6.3334 21.2372 8.55696 20.2728 11.4409C20.2728 11.4409 15.3292 5.9458 7.41988 8.94297C-0.487898 11.9402 0.0061407 20.5999 0.0061407 20.5999C0.0061407 20.5999 2.28062 13.548 9.89324 13.1062C17.5201 12.6627 20.7763 20.5361 20.7763 20.5361C20.7763 20.5361 22.4336 12.5559 29.3375 10.7741C35.7032 9.13279 39.534 14.1845 37.9225 20.4723C40.6594 14.0632 39.5451 7.58236 35.4444 4.75745Z" fill="url(#paint1_linear_153_146)"/>
<path d="M31.511 32.6307C31.511 32.6307 25.8509 23.8242 14.3412 28.0097C14.3412 28.0097 20.2223 27.8853 22.9024 34.6708C24.5692 38.8914 21.2419 44.8267 21.2419 44.8267C21.2419 44.8267 26.9194 39.6475 31.511 32.6323V32.6307Z" fill="url(#paint2_linear_153_146)"/>
<path d="M44.165 6.27865C40.2727 0.47889 30.5434 -1.24062 24.375 4.69312C28.5799 1.96073 32.8636 2.9784 35.4443 4.75693C39.5434 7.58184 40.6578 14.0627 37.9224 20.4718C37.763 21.0971 37.5499 21.7335 37.28 22.3763C34.6488 28.6418 31.5125 32.6296 31.5125 32.6296C26.9194 39.6448 21.2435 44.8241 21.2435 44.8241C46.6794 34.0333 50.8448 16.2225 44.1681 6.27705L44.165 6.27865Z" fill="url(#paint3_linear_153_146)"/>
<path style="mix-blend-mode:multiply" opacity="0.29" d="M37.2106 13.4826V13.4842C38.2981 15.2962 38.6138 17.7702 37.9209 20.4723C40.6578 14.0632 39.5435 7.58236 35.4428 4.75745C32.8621 2.97892 28.5783 1.96125 24.3735 4.69365C27.7718 2.69659 37.7551 3.18628 37.209 13.481L37.2106 13.4826Z" fill="url(#paint4_linear_153_146)"/>
<path style="mix-blend-mode:multiply" opacity="0.29" d="M29.4544 30.3579C28.2185 35.7637 23.7279 42.3386 21.242 44.8254C21.242 44.8254 26.9195 39.6461 31.511 32.6309C31.511 32.6309 30.8276 31.5686 29.4544 30.3579Z" fill="url(#paint5_linear_153_146)"/>
<defs>
<linearGradient id="paint0_linear_153_146" x1="2.15906" y1="21.3586" x2="20.1757" y2="44.1647" gradientUnits="userSpaceOnUse">
<stop stop-color="#FFBAE2"/>
<stop offset="0.52" stop-color="#EA87C0"/>
<stop offset="1" stop-color="#D657A1"/>
</linearGradient>
<linearGradient id="paint1_linear_153_146" x1="3.17399" y1="20.2299" x2="41.3444" y2="9.59122" gradientUnits="userSpaceOnUse">
<stop stop-color="#FFA3D8"/>
<stop offset="1" stop-color="#BF2C82"/>
</linearGradient>
<linearGradient id="paint2_linear_153_146" x1="15.5629" y1="28.9061" x2="27.5267" y2="39.3041" gradientUnits="userSpaceOnUse">
<stop stop-color="#FFA3D8"/>
<stop offset="0.66" stop-color="#D5549F"/>
<stop offset="1" stop-color="#BF2C82"/>
</linearGradient>
<linearGradient id="paint3_linear_153_146" x1="41.7437" y1="-0.358533" x2="21.2084" y2="42.5402" gradientUnits="userSpaceOnUse">
<stop stop-color="#FFBAE2"/>
<stop offset="1" stop-color="#D657A1"/>
</linearGradient>
<linearGradient id="paint4_linear_153_146" x1="15.2408" y1="15.4956" x2="37.1895" y2="11.053" gradientUnits="userSpaceOnUse">
<stop stop-color="#FFA3D8"/>
<stop offset="0.66" stop-color="#D5549F"/>
<stop offset="1" stop-color="#BF2C82"/>
</linearGradient>
<linearGradient id="paint5_linear_153_146" x1="15.5629" y1="28.9064" x2="27.5267" y2="39.3044" gradientUnits="userSpaceOnUse">
<stop stop-color="#FFA3D8"/>
<stop offset="0.66" stop-color="#D5549F"/>
<stop offset="1" stop-color="#BF2C82"/>
</linearGradient>
</defs>
</svg>
