<svg width="148" height="201" viewBox="0 0 148 201" fill="none" xmlns="http://www.w3.org/2000/svg">
<g clip-path="url(#clip0_57_95)">
<path d="M32.2459 67.6478C32.1201 64.519 34.5327 62.8532 35.629 67.4411C36.7214 72.029 38.2185 82.2737 38.2185 82.2737C38.2185 82.2737 32.4266 81.2632 32.4895 80.8536C32.5524 80.444 32.2459 67.6478 32.2459 67.6478Z" fill="#D5549F"/>
<path d="M26.6623 59.9468C26.509 56.0845 29.4875 54.0246 30.8392 59.6932C32.1909 65.3617 34.0376 78.0135 34.0376 78.0135C34.0376 78.0135 26.8863 76.7651 26.9648 76.2579C27.0434 75.7508 26.6662 59.9468 26.6662 59.9468H26.6623Z" fill="#E274B8"/>
<path d="M21.059 54.5513C20.8861 50.256 24.2025 47.9699 25.7035 54.2665C27.2045 60.5671 29.2596 74.6311 29.2596 74.6311C29.2596 74.6311 19.7466 64.8858 19.8331 64.324C19.9195 63.7622 21.063 54.5474 21.063 54.5474L21.059 54.5513Z" fill="#EA87C0"/>
<path d="M58.8789 113C57.5508 92.2765 35.9591 91.0476 26.6583 83.6976C17.3537 76.3477 15.3104 57.5865 15.888 53.377C16.4656 49.1676 18.7132 47.0882 20.5836 52.9674C22.454 58.8466 24.1986 69.4346 31.2557 74.3268C38.3128 79.219 53.8219 81.5285 44.0064 74.4633C34.187 67.3982 36.4188 59.7127 38.0652 58.0937C39.7116 56.4746 44.1793 65.7206 49.9986 68.8416C55.818 71.9587 63.8653 75.2592 67.8928 84.9694C73.4961 98.4834 58.8789 113 58.8789 113Z" fill="url(#paint0_linear_57_95)"/>
<path d="M103.237 9.18747C96.8128 4.83756 86.1485 2.34856 75.6808 9.03142C71.4371 13.0419 67.8693 18.4803 65.4684 25.5337C65.4684 25.5337 53.1617 12.0939 33.4718 19.4244C13.7858 26.7548 15.0157 47.9348 15.0157 47.9348C15.0157 47.9348 20.6779 30.6873 39.6291 29.6067C58.6157 28.5221 66.7219 47.7787 66.7219 47.7787C66.7219 47.7787 70.8477 28.2607 88.0346 23.903C103.882 19.8886 113.418 32.2439 109.406 47.6227C116.22 31.9474 113.446 16.0966 103.237 9.18747Z" fill="url(#paint1_linear_57_95)"/>
<path d="M93.4453 77.362C93.4453 77.362 79.3547 55.8231 50.702 66.06C50.702 66.06 65.3427 65.7557 72.0147 82.3517C76.1641 92.6744 67.881 107.191 67.881 107.191C67.881 107.191 82.0149 94.5236 93.4453 77.3659V77.362Z" fill="url(#paint2_linear_57_95)"/>
<path d="M124.947 12.9093C115.257 -1.27571 91.0366 -5.48127 75.6808 9.03142C86.1485 2.34856 96.8128 4.83756 103.237 9.18747C113.442 16.0966 116.216 31.9474 109.406 47.6227C109.009 49.152 108.479 50.7086 107.807 52.2808C101.257 67.6049 93.4493 77.3581 93.4493 77.3581C82.0149 94.5158 67.885 107.183 67.885 107.183C131.206 80.7912 141.576 37.2297 124.955 12.9054L124.947 12.9093Z" fill="url(#paint3_linear_57_95)"/>
<path style="mix-blend-mode:multiply" opacity="0.29" d="M107.634 30.5274V30.5313C110.341 34.9631 111.127 41.014 109.402 47.6227C116.216 31.9474 113.442 16.0966 103.233 9.18747C96.8088 4.83756 86.1446 2.34856 75.6768 9.03142C84.1367 4.14704 108.99 5.34473 107.63 30.5235L107.634 30.5274Z" fill="url(#paint4_linear_57_95)"/>
<path style="mix-blend-mode:multiply" opacity="0.29" d="M88.3254 71.8027C85.2487 85.0241 74.0698 101.105 67.881 107.187C67.881 107.187 82.0149 94.5197 93.4453 77.362C93.4453 77.362 91.7439 74.7638 88.3254 71.8027Z" fill="url(#paint5_linear_57_95)"/>
</g>
<path d="M5.74672 155.28C5.08005 155.28 4.56005 155.093 4.18672 154.72C3.84005 154.347 3.66672 153.827 3.66672 153.16V128.64C3.66672 127.947 3.84005 127.427 4.18672 127.08C4.56005 126.707 5.08005 126.52 5.74672 126.52C6.41339 126.52 6.92005 126.707 7.26672 127.08C7.64005 127.427 7.82672 127.947 7.82672 128.64V138.96H23.6267V128.64C23.6267 127.947 23.8001 127.427 24.1467 127.08C24.5201 126.707 25.0401 126.52 25.7067 126.52C26.3734 126.52 26.8801 126.707 27.2267 127.08C27.5734 127.427 27.7467 127.947 27.7467 128.64V153.16C27.7467 153.827 27.5734 154.347 27.2267 154.72C26.8801 155.093 26.3734 155.28 25.7067 155.28C25.0401 155.28 24.5201 155.093 24.1467 154.72C23.8001 154.347 23.6267 153.827 23.6267 153.16V142.44H7.82672V153.16C7.82672 153.827 7.65339 154.347 7.30672 154.72C6.96005 155.093 6.44005 155.28 5.74672 155.28ZM42.3708 155.36C40.3974 155.36 38.6908 154.947 37.2508 154.12C35.8374 153.293 34.7308 152.12 33.9308 150.6C33.1308 149.08 32.7308 147.293 32.7308 145.24C32.7308 143.667 32.9574 142.267 33.4108 141.04C33.8641 139.813 34.5041 138.76 35.3308 137.88C36.1841 136.973 37.1974 136.293 38.3708 135.84C39.5708 135.36 40.9041 135.12 42.3708 135.12C44.3174 135.12 45.9974 135.533 47.4108 136.36C48.8508 137.187 49.9708 138.36 50.7708 139.88C51.5708 141.373 51.9708 143.16 51.9708 145.24C51.9708 146.787 51.7441 148.187 51.2908 149.44C50.8374 150.693 50.1841 151.76 49.3308 152.64C48.5041 153.52 47.4908 154.2 46.2908 154.68C45.1174 155.133 43.8108 155.36 42.3708 155.36ZM42.3708 152.24C43.4641 152.24 44.4241 151.973 45.2508 151.44C46.0774 150.907 46.7174 150.12 47.1708 149.08C47.6508 148.04 47.8908 146.76 47.8908 145.24C47.8908 142.947 47.3841 141.213 46.3708 140.04C45.3574 138.867 44.0241 138.28 42.3708 138.28C41.2508 138.28 40.2774 138.547 39.4508 139.08C38.6241 139.587 37.9708 140.36 37.4908 141.4C37.0374 142.44 36.8108 143.72 36.8108 145.24C36.8108 147.507 37.3174 149.24 38.3308 150.44C39.3441 151.64 40.6908 152.24 42.3708 152.24ZM58.508 162.48C57.868 162.48 57.3746 162.307 57.028 161.96C56.6813 161.613 56.508 161.107 56.508 160.44V137.24C56.508 136.573 56.6813 136.067 57.028 135.72C57.3746 135.373 57.8546 135.2 58.468 135.2C59.108 135.2 59.6013 135.373 59.948 135.72C60.2946 136.067 60.468 136.573 60.468 137.24V140.72L60.028 139.88C60.4546 138.44 61.2946 137.293 62.548 136.44C63.8013 135.56 65.2813 135.12 66.988 135.12C68.7213 135.12 70.228 135.533 71.508 136.36C72.8146 137.187 73.8146 138.347 74.508 139.84C75.228 141.333 75.588 143.133 75.588 145.24C75.588 147.293 75.228 149.093 74.508 150.64C73.8146 152.16 72.828 153.333 71.548 154.16C70.268 154.96 68.748 155.36 66.988 155.36C65.308 155.36 63.8413 154.933 62.588 154.08C61.3346 153.227 60.4946 152.093 60.068 150.68H60.548V160.44C60.548 161.107 60.3613 161.613 59.988 161.96C59.6413 162.307 59.148 162.48 58.508 162.48ZM65.988 152.24C67.108 152.24 68.0813 151.973 68.908 151.44C69.7346 150.907 70.3746 150.12 70.828 149.08C71.2813 148.04 71.508 146.76 71.508 145.24C71.508 142.947 71.0013 141.213 69.988 140.04C69.0013 138.867 67.668 138.28 65.988 138.28C64.8946 138.28 63.9213 138.547 63.068 139.08C62.2413 139.587 61.6013 140.36 61.148 141.4C60.6946 142.44 60.468 143.72 60.468 145.24C60.468 147.507 60.9746 149.24 61.988 150.44C63.0013 151.64 64.3346 152.24 65.988 152.24ZM89.3008 155.36C87.1674 155.36 85.3274 154.96 83.7808 154.16C82.2608 153.333 81.0741 152.173 80.2208 150.68C79.3941 149.16 78.9808 147.36 78.9808 145.28C78.9808 143.253 79.3941 141.48 80.2208 139.96C81.0474 138.44 82.1808 137.253 83.6208 136.4C85.0608 135.547 86.7008 135.12 88.5408 135.12C89.9008 135.12 91.1141 135.347 92.1808 135.8C93.2474 136.227 94.1541 136.867 94.9008 137.72C95.6741 138.547 96.2474 139.56 96.6208 140.76C97.0208 141.96 97.2208 143.307 97.2208 144.8C97.2208 145.253 97.0874 145.6 96.8208 145.84C96.5541 146.053 96.1541 146.16 95.6208 146.16H82.1808V143.68H94.5008L93.8208 144.24C93.8208 142.907 93.6208 141.773 93.2208 140.84C92.8474 139.907 92.2741 139.2 91.5008 138.72C90.7541 138.213 89.8208 137.96 88.7008 137.96C87.4474 137.96 86.3808 138.253 85.5008 138.84C84.6474 139.427 83.9941 140.24 83.5408 141.28C83.0874 142.32 82.8608 143.533 82.8608 144.92V145.16C82.8608 147.507 83.4074 149.28 84.5008 150.48C85.6208 151.653 87.2341 152.24 89.3408 152.24C90.1408 152.24 90.9808 152.133 91.8608 151.92C92.7674 151.707 93.6208 151.347 94.4208 150.84C94.8741 150.573 95.2741 150.453 95.6208 150.48C95.9941 150.507 96.2874 150.627 96.5008 150.84C96.7408 151.053 96.8874 151.32 96.9408 151.64C96.9941 151.96 96.9408 152.293 96.7808 152.64C96.6208 152.96 96.3408 153.253 95.9408 153.52C95.0341 154.133 93.9808 154.6 92.7808 154.92C91.5808 155.213 90.4208 155.36 89.3008 155.36ZM104.786 155.28C104.146 155.28 103.639 155.107 103.266 154.76C102.919 154.387 102.746 153.88 102.746 153.24V138.6H100.506C99.9994 138.6 99.5994 138.467 99.3061 138.2C99.0128 137.907 98.8661 137.52 98.8661 137.04C98.8661 136.533 99.0128 136.147 99.3061 135.88C99.5994 135.613 99.9994 135.48 100.506 135.48H103.906L102.746 136.56V135.12C102.746 132.48 103.399 130.493 104.706 129.16C106.013 127.8 107.919 127 110.426 126.76L111.666 126.68C112.119 126.627 112.479 126.693 112.746 126.88C113.013 127.067 113.186 127.307 113.266 127.6C113.346 127.893 113.346 128.2 113.266 128.52C113.213 128.813 113.079 129.08 112.866 129.32C112.653 129.56 112.386 129.693 112.066 129.72L111.306 129.76C109.733 129.893 108.586 130.347 107.866 131.12C107.146 131.867 106.786 133.013 106.786 134.56V136.12L106.226 135.48H110.666C111.226 135.48 111.639 135.613 111.906 135.88C112.199 136.147 112.346 136.533 112.346 137.04C112.346 137.52 112.199 137.907 111.906 138.2C111.639 138.467 111.226 138.6 110.666 138.6H106.786V153.24C106.786 154.6 106.119 155.28 104.786 155.28ZM122.413 155.36C120.84 155.36 119.52 155.067 118.453 154.48C117.413 153.893 116.627 153.027 116.093 151.88C115.587 150.707 115.333 149.24 115.333 147.48V137.24C115.333 136.547 115.507 136.04 115.853 135.72C116.2 135.373 116.693 135.2 117.333 135.2C117.973 135.2 118.467 135.373 118.813 135.72C119.187 136.04 119.373 136.547 119.373 137.24V147.52C119.373 149.093 119.693 150.253 120.333 151C120.973 151.747 121.987 152.12 123.373 152.12C124.893 152.12 126.12 151.613 127.053 150.6C128.013 149.56 128.493 148.2 128.493 146.52V137.24C128.493 136.547 128.667 136.04 129.013 135.72C129.36 135.373 129.867 135.2 130.533 135.2C131.173 135.2 131.667 135.373 132.013 135.72C132.36 136.04 132.533 136.547 132.533 137.24V153.24C132.533 154.6 131.88 155.28 130.573 155.28C129.96 155.28 129.48 155.107 129.133 154.76C128.787 154.387 128.613 153.88 128.613 153.24V149.84L129.133 150.72C128.6 152.213 127.747 153.36 126.573 154.16C125.4 154.96 124.013 155.36 122.413 155.36ZM144.507 155.36C142.427 155.36 140.853 154.76 139.787 153.56C138.747 152.333 138.227 150.573 138.227 148.28V128.56C138.227 127.893 138.4 127.387 138.747 127.04C139.093 126.693 139.587 126.52 140.227 126.52C140.867 126.52 141.36 126.693 141.707 127.04C142.08 127.387 142.267 127.893 142.267 128.56V148.04C142.267 149.373 142.533 150.373 143.067 151.04C143.627 151.68 144.427 152 145.467 152C145.707 152 145.92 152 146.107 152C146.293 151.973 146.48 151.947 146.667 151.92C146.987 151.893 147.213 151.987 147.347 152.2C147.48 152.387 147.547 152.787 147.547 153.4C147.547 153.96 147.427 154.4 147.187 154.72C146.947 155.013 146.56 155.2 146.027 155.28C145.787 155.307 145.533 155.32 145.267 155.32C145 155.347 144.747 155.36 144.507 155.36Z" fill="#6EB9FC"/>
<path d="M64.4112 184.648C64.6192 184.648 64.7792 184.744 64.8912 184.936C65.0192 185.128 65.0832 185.392 65.0832 185.728C65.0832 186.352 64.9312 186.848 64.6272 187.216C63.0432 189.152 61.3552 190.12 59.5632 190.12C58.0112 190.12 56.7712 189.52 55.8432 188.32C54.9152 187.12 54.4512 185.4 54.4512 183.16C54.4512 182.616 54.4752 182.072 54.5232 181.528C53.4672 181.72 52.3152 181.864 51.0672 181.96C50.2352 182.024 49.6672 182.064 49.3632 182.08C49.0432 183.712 48.5952 185.712 48.0192 188.08C47.6832 189.472 47.0432 190.168 46.0992 190.168C45.0752 190.168 44.5632 189.704 44.5632 188.776C44.5632 188.568 44.6032 188.28 44.6832 187.912C45.2272 185.72 45.6592 183.864 45.9792 182.344L44.8272 182.392C44.2992 182.392 43.9152 182.304 43.6752 182.128C43.4352 181.936 43.3152 181.632 43.3152 181.216C43.3152 180.688 43.4672 180.304 43.7712 180.064C44.0752 179.808 44.5792 179.664 45.2832 179.632L46.5552 179.584C46.9712 177.328 47.1792 175.608 47.1792 174.424C47.1792 173.672 47.0672 173.16 46.8432 172.888C46.6192 172.616 46.3232 172.48 45.9552 172.48C44.8352 172.48 43.5712 173.416 42.1632 175.288C41.9552 175.56 41.7232 175.696 41.4672 175.696C41.2432 175.696 41.0512 175.592 40.8912 175.384C40.7312 175.176 40.6512 174.912 40.6512 174.592C40.6512 174.096 40.8512 173.568 41.2512 173.008C41.9552 172.032 42.8432 171.232 43.9152 170.608C44.9872 169.968 46.0752 169.648 47.1792 169.648C48.2192 169.648 49.0192 170.008 49.5792 170.728C50.1552 171.432 50.4432 172.536 50.4432 174.04C50.4432 175.368 50.2512 177.168 49.8672 179.44L52.2192 179.32C53.2272 179.272 54.0912 179.192 54.8112 179.08C55.0992 177.32 55.5392 175.672 56.1312 174.136C56.7232 172.6 57.4592 171.352 58.3392 170.392C59.2192 169.432 60.2032 168.952 61.2912 168.952C62.0912 168.952 62.7232 169.272 63.1872 169.912C63.6512 170.536 63.8832 171.36 63.8832 172.384C63.8832 176.352 61.8592 179.104 57.8112 180.64C57.7632 181.28 57.7392 181.944 57.7392 182.632C57.7392 184.312 57.9472 185.504 58.3632 186.208C58.7792 186.912 59.3632 187.264 60.1152 187.264C60.7712 187.264 61.3712 187.096 61.9152 186.76C62.4592 186.408 63.0752 185.816 63.7632 184.984C63.9552 184.76 64.1712 184.648 64.4112 184.648ZM61.1712 171.04C60.8192 171.04 60.4432 171.36 60.0432 172C59.6592 172.64 59.2912 173.512 58.9392 174.616C58.5872 175.72 58.3072 176.928 58.0992 178.24C59.3792 177.712 60.3232 176.96 60.9312 175.984C61.5392 175.008 61.8432 173.752 61.8432 172.216C61.8432 171.848 61.7792 171.56 61.6512 171.352C61.5232 171.144 61.3632 171.04 61.1712 171.04ZM66.0923 190.12C65.1003 190.12 64.3083 189.76 63.7163 189.04C63.1243 188.32 62.8283 187.376 62.8283 186.208C62.8283 184.928 63.1243 183.72 63.7163 182.584C64.3083 181.432 65.0923 180.512 66.0683 179.824C67.0603 179.12 68.1083 178.768 69.2123 178.768C69.5643 178.768 69.7963 178.84 69.9083 178.984C70.0363 179.112 70.1403 179.352 70.2203 179.704C70.5563 179.64 70.9083 179.608 71.2763 179.608C72.0603 179.608 72.4523 179.888 72.4523 180.448C72.4523 180.784 72.3323 181.584 72.0923 182.848C71.7243 184.688 71.5403 185.968 71.5403 186.688C71.5403 186.928 71.5963 187.12 71.7083 187.264C71.8363 187.408 71.9963 187.48 72.1883 187.48C72.4923 187.48 72.8603 187.288 73.2923 186.904C73.7243 186.504 74.3083 185.864 75.0443 184.984C75.2363 184.76 75.4523 184.648 75.6923 184.648C75.9003 184.648 76.0603 184.744 76.1723 184.936C76.3003 185.128 76.3643 185.392 76.3643 185.728C76.3643 186.368 76.2123 186.864 75.9083 187.216C75.2523 188.032 74.5563 188.72 73.8203 189.28C73.0843 189.84 72.3723 190.12 71.6843 190.12C71.1563 190.12 70.6683 189.944 70.2203 189.592C69.7883 189.224 69.4603 188.728 69.2363 188.104C68.4043 189.448 67.3563 190.12 66.0923 190.12ZM66.9563 187.696C67.3083 187.696 67.6443 187.488 67.9643 187.072C68.2843 186.656 68.5163 186.104 68.6603 185.416L69.5483 181C68.8763 181.016 68.2523 181.272 67.6763 181.768C67.1163 182.248 66.6683 182.888 66.3323 183.688C65.9963 184.488 65.8283 185.336 65.8283 186.232C65.8283 186.728 65.9243 187.096 66.1163 187.336C66.3243 187.576 66.6043 187.696 66.9563 187.696ZM76.1177 190.12C75.5097 190.12 75.0777 189.8 74.8217 189.16C74.5817 188.52 74.4617 187.496 74.4617 186.088C74.4617 184.008 74.7577 182.032 75.3497 180.16C75.4937 179.696 75.7257 179.36 76.0457 179.152C76.3817 178.928 76.8457 178.816 77.4377 178.816C77.7577 178.816 77.9817 178.856 78.1097 178.936C78.2377 179.016 78.3017 179.168 78.3017 179.392C78.3017 179.648 78.1817 180.224 77.9417 181.12C77.7817 181.76 77.6537 182.32 77.5577 182.8C77.4617 183.28 77.3817 183.872 77.3177 184.576C77.8457 183.2 78.4377 182.08 79.0937 181.216C79.7497 180.352 80.3897 179.736 81.0137 179.368C81.6537 179 82.2377 178.816 82.7657 178.816C83.8057 178.816 84.3257 179.336 84.3257 180.376C84.3257 181 84.1497 182.128 83.7977 183.76C83.4937 185.152 83.3417 186.072 83.3417 186.52C83.3417 187.16 83.5737 187.48 84.0377 187.48C84.3577 187.48 84.7337 187.288 85.1657 186.904C85.6137 186.504 86.2057 185.864 86.9417 184.984C87.1337 184.76 87.3497 184.648 87.5897 184.648C87.7977 184.648 87.9577 184.744 88.0697 184.936C88.1977 185.128 88.2617 185.392 88.2617 185.728C88.2617 186.368 88.1097 186.864 87.8057 187.216C87.1177 188.064 86.3737 188.76 85.5737 189.304C84.7897 189.848 83.8937 190.12 82.8857 190.12C82.0697 190.12 81.4537 189.888 81.0377 189.424C80.6217 188.944 80.4137 188.256 80.4137 187.36C80.4137 186.912 80.5257 186.112 80.7497 184.96C80.9577 183.952 81.0617 183.256 81.0617 182.872C81.0617 182.616 80.9737 182.488 80.7977 182.488C80.5897 182.488 80.2937 182.76 79.9097 183.304C79.5417 183.832 79.1577 184.536 78.7577 185.416C78.3737 186.296 78.0617 187.224 77.8217 188.2C77.6457 188.952 77.4377 189.464 77.1977 189.736C76.9737 189.992 76.6137 190.12 76.1177 190.12ZM99.952 184.648C100.16 184.648 100.32 184.744 100.432 184.936C100.56 185.128 100.624 185.392 100.624 185.728C100.624 186.368 100.472 186.864 100.168 187.216C99.512 188.016 98.792 188.704 98.008 189.28C97.224 189.84 96.448 190.12 95.68 190.12C94.464 190.12 93.536 189.408 92.896 187.984C92.224 188.832 91.632 189.4 91.12 189.688C90.624 189.976 90.04 190.12 89.368 190.12C88.392 190.12 87.584 189.76 86.944 189.04C86.32 188.304 86.008 187.352 86.008 186.184C86.008 184.904 86.28 183.72 86.824 182.632C87.368 181.528 88.112 180.632 89.056 179.944C90.016 179.24 91.088 178.824 92.272 178.696C92.576 175.592 93.152 172.944 94 170.752C94.864 168.544 95.992 167.44 97.384 167.44C98.072 167.44 98.64 167.752 99.088 168.376C99.552 169 99.784 169.944 99.784 171.208C99.784 173 99.344 175.096 98.464 177.496C97.584 179.896 96.408 182.36 94.936 184.888C95 185.816 95.136 186.48 95.344 186.88C95.568 187.28 95.848 187.48 96.184 187.48C96.616 187.48 97.056 187.288 97.504 186.904C97.952 186.52 98.552 185.88 99.304 184.984C99.496 184.76 99.712 184.648 99.952 184.648ZM97.12 169.792C96.816 169.792 96.512 170.336 96.208 171.424C95.904 172.496 95.64 173.904 95.416 175.648C95.208 177.392 95.056 179.216 94.96 181.12C96.752 177.216 97.648 174.08 97.648 171.712C97.648 171.104 97.592 170.632 97.48 170.296C97.384 169.96 97.264 169.792 97.12 169.792ZM90.208 187.696C90.512 187.696 90.816 187.576 91.12 187.336C91.424 187.08 91.808 186.616 92.272 185.944C92.112 185.08 92.032 184.112 92.032 183.04C92.032 182.656 92.048 182.032 92.08 181.168C91.2 181.44 90.464 182.032 89.872 182.944C89.296 183.84 89.008 184.84 89.008 185.944C89.008 187.112 89.408 187.696 90.208 187.696ZM103.136 190.648C102.304 190.648 101.664 190.456 101.216 190.072C100.784 189.688 100.568 189.256 100.568 188.776C100.568 188.36 100.72 188 101.024 187.696C101.328 187.392 101.776 187.24 102.368 187.24C102.576 187.24 102.816 187.264 103.088 187.312C103.376 187.344 103.592 187.368 103.736 187.384C103.72 186.968 103.624 186.576 103.448 186.208C103.288 185.84 103.08 185.488 102.824 185.152C102.568 184.8 102.328 184.496 102.104 184.24C101.608 185.184 101.112 185.968 100.616 186.592C100.136 187.216 99.6075 187.808 99.0315 188.368C98.7435 188.656 98.4395 188.8 98.1195 188.8C97.8635 188.8 97.6555 188.712 97.4955 188.536C97.3355 188.344 97.2555 188.112 97.2555 187.84C97.2555 187.52 97.3675 187.224 97.5915 186.952L97.9035 186.568C98.7835 185.48 99.4475 184.584 99.8955 183.88C100.184 183.416 100.472 182.864 100.76 182.224C101.064 181.584 101.456 180.712 101.936 179.608C102.24 178.904 102.872 178.552 103.832 178.552C104.28 178.552 104.592 178.592 104.768 178.672C104.944 178.752 105.032 178.88 105.032 179.056C105.032 179.152 105 179.304 104.936 179.512C104.872 179.72 104.784 179.928 104.672 180.136C104.384 180.712 104.24 181.2 104.24 181.6C104.24 181.84 104.32 182.104 104.48 182.392C104.656 182.68 104.92 183.04 105.272 183.472C105.784 184.144 106.168 184.72 106.424 185.2C106.696 185.664 106.832 186.176 106.832 186.736C106.832 187.408 106.672 188.048 106.352 188.656C106.048 189.248 105.616 189.728 105.056 190.096C104.496 190.464 103.856 190.648 103.136 190.648Z" fill="white"/>
<defs>
<linearGradient id="paint0_linear_57_95" x1="20.3753" y1="49.7918" x2="64.2537" y2="106.326" gradientUnits="userSpaceOnUse">
<stop stop-color="#FFBAE2"/>
<stop offset="0.52" stop-color="#EA87C0"/>
<stop offset="1" stop-color="#D657A1"/>
</linearGradient>
<linearGradient id="paint1_linear_57_95" x1="22.9019" y1="47.0297" x2="117.679" y2="20.1425" gradientUnits="userSpaceOnUse">
<stop stop-color="#FFA3D8"/>
<stop offset="1" stop-color="#BF2C82"/>
</linearGradient>
<linearGradient id="paint2_linear_57_95" x1="53.7433" y1="68.2525" x2="83.072" y2="94.1977" gradientUnits="userSpaceOnUse">
<stop stop-color="#FFA3D8"/>
<stop offset="0.66" stop-color="#D5549F"/>
<stop offset="1" stop-color="#BF2C82"/>
</linearGradient>
<linearGradient id="paint3_linear_57_95" x1="118.919" y1="-3.32387" x2="69.2529" y2="102.282" gradientUnits="userSpaceOnUse">
<stop stop-color="#FFBAE2"/>
<stop offset="1" stop-color="#D657A1"/>
</linearGradient>
<linearGradient id="paint4_linear_57_95" x1="52.9417" y1="35.4508" x2="107.504" y2="24.2097" gradientUnits="userSpaceOnUse">
<stop stop-color="#FFA3D8"/>
<stop offset="0.66" stop-color="#D5549F"/>
<stop offset="1" stop-color="#BF2C82"/>
</linearGradient>
<linearGradient id="paint5_linear_57_95" x1="53.7433" y1="68.2526" x2="83.072" y2="94.1977" gradientUnits="userSpaceOnUse">
<stop stop-color="#FFA3D8"/>
<stop offset="0.66" stop-color="#D5549F"/>
<stop offset="1" stop-color="#BF2C82"/>
</linearGradient>
<clipPath id="clip0_57_95">
<rect width="117" height="113" fill="white" transform="translate(15)"/>
</clipPath>
</defs>
</svg>
